Coordinates
version=1
nRows=43
nColumns=12
inDegrees=yes

Units are S.I. units (second, meters, Newtons, ...)
Angles are in degrees

endheader
time	SC_y	SC_z	SC_x	AC_y	AC_z	AC_x	GH_y	GH_z	GH_yy	EL_x	PS_y
       0.0              -48.71          19.98          63.75          39.68         -3.063         -5.712          124.7          65.86         -170.4           67.9          56.75
  0.003427              -48.71          19.98          63.75          39.69         -3.062         -5.713          124.7          65.85         -170.4           67.9          56.76
  0.006854              -48.71          19.97          63.75          39.69          -3.06         -5.714          124.7          65.84         -170.4           67.9          56.76
   0.01028              -48.71          19.97          63.75          39.69         -3.058         -5.716          124.7          65.82         -170.4           67.9          56.77
   0.01371              -48.71          19.97          63.74          39.69         -3.055         -5.717          124.6          65.81         -170.4          67.89          56.78
   0.01713              -48.71          19.97          63.74           39.7         -3.053         -5.718          124.6          65.79         -170.4          67.89          56.79
   0.02056              -48.71          19.97          63.74           39.7         -3.051          -5.72          124.6          65.78         -170.4          67.89          56.79
   0.02399              -48.71          19.97          63.74           39.7         -3.048         -5.721          124.6          65.76         -170.4          67.89           56.8
   0.02742              -48.71          19.96          63.74          39.71         -3.045         -5.723          124.6          65.74         -170.4          67.89          56.81
   0.03084              -48.71          19.96          63.74          39.71         -3.042         -5.725          124.6          65.72         -170.4          67.89          56.82
   0.03427              -48.71          19.96          63.74          39.71         -3.039         -5.727          124.6           65.7         -170.4          67.88          56.83
    0.0377              -48.71          19.96          63.74          39.72         -3.035         -5.729          124.6          65.68         -170.4          67.88          56.85
   0.04112              -48.71          19.95          63.74          39.72         -3.031         -5.731          124.6          65.66         -170.4          67.88          56.86
   0.04455              -48.71          19.95          63.74          39.73         -3.027         -5.734          124.6          65.63         -170.4          67.88          56.87
   0.04798              -48.71          19.95          63.74          39.73         -3.023         -5.737          124.6           65.6         -170.4          67.87          56.89
    0.0514              -48.71          19.94          63.74          39.74         -3.018         -5.739          124.6          65.57         -170.4          67.87          56.91
   0.05483              -48.71          19.94          63.74          39.75         -3.013         -5.743          124.5          65.54         -170.4          67.87          56.92
   0.05826              -48.71          19.93          63.73          39.75         -3.007         -5.746          124.5           65.5         -170.4          67.87          56.94
   0.06168              -48.71          19.93          63.73          39.76         -3.001          -5.75          124.5          65.46         -170.4          67.86          56.97
   0.06511              -48.71          19.92          63.73          39.77         -2.994         -5.754          124.5          65.42         -170.4          67.86          56.99
   0.06854              -48.71          19.92          63.73          39.78         -2.986         -5.759          124.5          65.37         -170.4          67.85          57.02
   0.07196              -48.71          19.91          63.73          39.79         -2.978         -5.764          124.4          65.32         -170.4          67.85          57.04
   0.07539              -48.71           19.9          63.73           39.8         -2.969         -5.769          124.4          65.26         -170.4          67.84          57.07
   0.07882              -48.71          19.89          63.72          39.82         -2.959         -5.775          124.4           65.2         -170.4          67.84          57.11
   0.08225              -48.71          19.88          63.72          39.83         -2.948         -5.782          124.4          65.12         -170.4          67.83          57.15
   0.08567              -48.71          19.87          63.72          39.85         -2.935          -5.79          124.3          65.04         -170.4          67.82          57.19
    0.0891              -48.71          19.86          63.71          39.86         -2.921         -5.798          124.3          64.96         -170.4          67.81          57.24
   0.09253              -48.71          19.85          63.71          39.88         -2.905         -5.808          124.3          64.85         -170.4           67.8          57.29
   0.09595              -48.71          19.84          63.71          39.91         -2.887         -5.818          124.2          64.74         -170.4          67.79          57.36
   0.09938              -48.71          19.82           63.7          39.93         -2.867         -5.831          124.2          64.61         -170.4          67.78          57.43
    0.1028              -48.71           19.8           63.7          39.96         -2.844         -5.845          124.1          64.47         -170.4          67.77          57.51
    0.1062              -48.71          19.78          63.69           40.0         -2.817         -5.861          124.0           64.3         -170.4          67.75           57.6
    0.1097              -48.71          19.76          63.68          40.04         -2.787         -5.879          123.9           64.1         -170.4          67.73           57.7
    0.1131              -48.71          19.73          63.68          40.08         -2.751         -5.901          123.8          63.88         -170.4          67.71          57.83
    0.1165              -48.71          19.69          63.67          40.13         -2.709         -5.926          123.7          63.61         -170.4          67.69          57.97
    0.1199              -48.71          19.65          63.66           40.2          -2.66         -5.956          123.6           63.3         -170.4          67.66          58.14
    0.1234              -48.71          19.61          63.64          40.27         -2.602         -5.991          123.5          62.93         -170.4          67.62          58.34
    0.1268              -48.71          19.55          63.63          40.36         -2.532         -6.033          123.3          62.48         -170.4          67.58          58.58
    0.1302              -48.72          19.48          63.61          40.47         -2.447         -6.084          123.0          61.95         -170.4          67.53          58.87
    0.1336              -48.72           19.4          63.59           40.6         -2.343         -6.147          122.8          61.29         -170.4          67.47          59.23
    0.1371              -48.72           19.3          63.56          40.76         -2.216         -6.224          122.4          60.48         -170.4          67.39          59.67
    0.1405              -48.72          19.17          63.52          40.97         -2.056          -6.32          122.0          59.47         -170.4           67.3          60.22
    0.1439              -48.72          19.01          63.48          41.22         -1.855         -6.442          121.5          58.19         -170.4          67.18          60.91
